<?xml version="1.0" encoding="UTF-8"?>
<svg id="Layer_2" data-name="Layer 2" xmlns="http://www.w3.org/2000/svg" viewBox="0 0 582.98 137.36">
  <defs>
    <style>
      .cls-1 {
        fill: #0d1414;
        stroke-width: 0px;
      }
    </style>
  </defs>
  <g id="Layer_1-2" data-name="Layer 1">
    <path class="cls-1" d="M58.19.85c11.95-1.88,24.43-.68,35.67,3.84,13.18,5.08,24.72,14.34,32.48,26.15.72,1.18,1.49,2.33,2.17,3.55.41.73.83,1.46,1.23,2.2.41.79.81,1.59,1.23,2.38.21.48.43.95.65,1.43.28.63.57,1.26.84,1.89.18.45.36.91.53,1.36.17.45.35.91.52,1.37.13.35.25.7.39,1.05.08.27.17.55.25.82.09.27.18.54.27.81.09.27.18.54.28.81.09.35.19.69.3,1.04.17.69.36,1.36.56,2.04.07.32.15.65.24.97.17.81.35,1.62.55,2.43.07.44.15.88.24,1.31.09.54.16,1.08.29,1.61.09.66.14,1.33.29,1.98.06.8.11,1.61.28,2.4.09,1.36.04,2.74.26,4.1.04,1.54.04,3.09,0,4.63-.23,1.35-.17,2.73-.26,4.09-.18.8-.23,1.61-.29,2.42-.16.71-.21,1.44-.36,2.15-.13.91-.32,1.81-.47,2.71-.1.36-.18.73-.27,1.1-.11.44-.2.89-.28,1.34-.1.36-.2.72-.29,1.08-.08.28-.16.56-.23.84-.11.36-.21.72-.31,1.08-.08.28-.15.56-.23.84-.37,1.08-.72,2.17-1.08,3.26-.33.81-.64,1.64-.96,2.46-.17.42-.34.84-.52,1.26-.33.74-.66,1.48-.99,2.22-.18.36-.36.72-.54,1.08-.19.36-.37.72-.55,1.09-.07.14-.21.4-.27.54-.07.13-.2.4-.27.53-1.43,2.6-2.96,5.16-4.72,7.56-4.33,6.03-9.63,11.39-15.68,15.69-2.73,1.99-5.64,3.71-8.61,5.3-.14.07-.42.21-.56.28-.89.47-1.78.94-2.7,1.34-1.19.51-2.37,1.05-3.59,1.48-.34.14-.68.27-1.02.42-.39.13-.76.27-1.14.4-1.24.41-2.49.83-3.75,1.2-1.44.39-2.89.75-4.35,1.07-.89.19-1.79.37-2.68.55-.56.08-1.11.15-1.65.28-.64.08-1.28.13-1.9.28-.82.08-1.64.11-2.45.28-3.71.18-7.43.15-11.14.01-.8-.2-1.63-.22-2.45-.28-.8-.18-1.62-.21-2.43-.27-1.08-.23-2.17-.39-3.26-.55-.44-.12-.88-.22-1.32-.33-.38-.08-.76-.16-1.13-.23-.36-.09-.72-.18-1.09-.26-.35-.1-.7-.2-1.05-.29-.36-.1-.71-.2-1.07-.29-.28-.08-.56-.16-.85-.23-.27-.1-.55-.19-.82-.28-.27-.09-.54-.18-.81-.27-.27-.09-.55-.19-.82-.28-.27-.09-.55-.17-.82-.25-.34-.14-.68-.27-1.02-.41-.38-.14-.76-.28-1.14-.42-.53-.22-1.06-.42-1.59-.64-.91-.41-1.83-.83-2.74-1.22-.14-.07-.41-.21-.55-.28-.14-.07-.41-.2-.55-.27-.14-.07-.41-.21-.55-.27s-.4-.2-.54-.27l-.54-.27c-.13-.08-.39-.23-.52-.3-.71-.4-1.42-.8-2.13-1.2-1.56-.95-3.1-1.94-4.59-2.99-1.48-1.01-2.89-2.13-4.28-3.25-6.25-5.11-11.55-11.36-15.62-18.34-.35-.64-.71-1.28-1.07-1.91-.07-.13-.21-.39-.29-.52-.18-.37-.36-.73-.55-1.09-.27-.54-.54-1.08-.82-1.62-.17-.37-.34-.75-.51-1.12-.32-.73-.66-1.45-.97-2.19-.18-.46-.36-.92-.53-1.38-.14-.35-.27-.69-.42-1.04-.57-1.62-1.14-3.24-1.59-4.9-.1-.36-.19-.71-.29-1.05-.29-1.07-.54-2.16-.79-3.24-.09-.47-.18-.93-.3-1.39-.14-1.02-.32-2.03-.55-3.03-.06-.71-.1-1.42-.27-2.12-.09-.99-.08-2-.28-2.97-.16-3.35-.15-6.71,0-10.07.2-.98.2-1.99.29-2.98.18-.71.21-1.44.28-2.16.23-.99.41-2,.55-3.01.11-.44.2-.89.29-1.34.33-1.45.69-2.9,1.09-4.33.47-1.66,1.04-3.28,1.6-4.91.14-.34.27-.68.41-1.01.17-.47.34-.93.52-1.39.27-.63.55-1.25.84-1.88.58-1.42,1.32-2.77,1.99-4.14,5.54-10.24,13.58-19.18,23.41-25.46C39.46,5.84,48.65,2.29,58.19.85ZM52.27,20.01c-8.15,3.25-15.27,8.92-20.45,15.98-.22.29-.44.58-.66.88-1.34,1.9-2.51,3.91-3.63,5.94-.18.37-.36.73-.53,1.09-.3.62-.58,1.24-.85,1.87-.61,1.52-1.14,3.06-1.61,4.62-.29,1.1-.55,2.2-.8,3.31-.09.53-.17,1.06-.29,1.58-.07.62-.15,1.24-.29,1.84-.05.83-.08,1.66-.27,2.47-.17,4.45-.18,8.91,0,13.36.22,1.1.23,2.23.27,3.35h.16c.03.69.07,1.36.13,2.04.17.63.23,1.28.38,1.91.06.45.11.9.16,1.35.22.81.41,1.62.56,2.44.1.36.17.72.25,1.08.11.36.21.71.31,1.07.08.27.15.55.23.83.11.36.2.71.3,1.07.09.27.18.54.27.81.13.35.25.71.38,1.06.24.73.5,1.46.82,2.17.12.29.24.58.36.88.07.14.22.41.29.55.07.14.2.41.26.55.23.38.45.76.68,1.15.06-.31.12-.63.18-.94.37-2.18.18-4.42.23-6.63h.16c0-5.01.03-10.03,0-15.05.01-4.75-.12-9.5.09-14.24h.15c.03-.7.07-1.39.15-2.08.14-.52.21-1.05.28-1.58.11-.43.2-.87.3-1.3.09-.37.17-.75.25-1.13.09-.28.17-.57.25-.85.14-.43.26-.86.4-1.29.12-.38.26-.76.39-1.14.1-.26.2-.52.29-.79.15-.35.29-.71.43-1.05.07-.14.2-.42.27-.56.12-.29.25-.58.37-.87.4-.79.81-1.58,1.22-2.38.81-1.5,1.74-2.94,2.74-4.32,3.37-4.64,7.72-8.63,12.81-11.31,5.26-2.94,11.24-4.43,17.23-4.87,5.75-.22,11.64-.02,17.13,1.88,10.26,3.23,18.5,11.28,23.33,20.74.13.29.27.57.4.86.19.39.38.78.57,1.17.18.42.37.84.54,1.27.37.9.73,1.81,1.05,2.73.13.35.26.7.4,1.05.07.28.15.56.23.83.1.37.2.73.32,1.1.25.98.51,1.97.81,2.94.08.46.17.93.28,1.39.07.44.13.89.23,1.33.1.54.19,1.08.33,1.62.06.72.11,1.45.27,2.16.05.9.06,1.82.28,2.7.03,2.28.1,4.56,0,6.84-.31,1.33-.08,2.71-.4,4.04-.06.45-.11.9-.17,1.36-.15.64-.21,1.29-.27,1.94-.12.46-.21.93-.31,1.4-.21.79-.4,1.59-.54,2.4-.2.79-.39,1.58-.64,2.35-.04.14-.11.42-.14.56-.1.28-.19.55-.28.84-.2.62-.38,1.24-.56,1.87-.12.36-.25.71-.37,1.07-.18.46-.36.91-.53,1.37-.29.75-.64,1.47-.97,2.19-.39.86-.85,1.69-1.31,2.52-.69,1.19-1.4,2.37-2.26,3.45-.2.33-.33.69-.38,1.08.08-.18.24-.54.33-.71.07.02.22.07.3.09,1.12-1.05,2.26-2.07,3.23-3.27,1.85-2.25,3.16-4.87,4.32-7.53.27-.63.55-1.26.81-1.89.13-.35.26-.7.39-1.05.39-1.08.77-2.16,1.09-3.25.08-.28.16-.56.25-.83.19-.7.36-1.4.55-2.1.47-2.16.83-4.35,1.13-6.54.08-1.09.05-2.19.26-3.27.06-1.82.04-3.64,0-5.46-.25-1.14-.18-2.31-.28-3.46-.19-.73-.23-1.48-.28-2.23-.16-.62-.23-1.26-.37-1.89-.12-.82-.29-1.63-.47-2.44-.1-.36-.18-.72-.25-1.08-.19-.72-.37-1.45-.56-2.17-.09-.27-.18-.55-.26-.83-.1-.35-.2-.7-.28-1.05-.13-.36-.25-.71-.38-1.07-.47-1.48-1.01-2.93-1.63-4.35-1.84-4.39-4.3-8.5-7.31-12.19-3.7-4.2-7.92-8.01-12.8-10.79-11.82-6.9-26.79-7.49-39.45-2.56ZM60.54,31.62c-5.23,1.89-9.94,5.22-13.39,9.6-1.07,1.43-2.03,2.95-2.82,4.56-.27.63-.55,1.27-.82,1.9-.39.89-.78,1.79-1.09,2.72-.21.75-.45,1.48-.67,2.22-.14.43-.28.87-.42,1.31-.07.44-.15.88-.25,1.32-.08.47-.15.94-.26,1.4-.09.54-.18,1.08-.31,1.61-.07,1.08-.03,2.18-.28,3.24-.26,15.24-.04,30.49-.01,45.74h.15c.03.59.08,1.17.13,1.75.14.34.25.7.38,1.05.22.49.46.96.71,1.44.38.47.78.94,1.16,1.41.22.01.43.02.65.04.02-.28.05-.56.07-.84h.18c.05-7.63.05-15.26.08-22.89.03-8.96-.09-17.93.02-26.89.23-1.07.2-2.16.28-3.24.17-.61.21-1.24.28-1.87.12-.46.2-.92.29-1.38.1-.36.17-.73.25-1.09.14-.43.27-.87.41-1.3.13-.39.26-.78.39-1.17.18-.45.36-.9.54-1.35.14-.27.27-.53.41-.79.12-.28.25-.56.38-.84.61-1.01,1.22-2.02,1.89-2.99,3.24-4.51,7.98-7.84,13.2-9.66l.15-.08c.28-.08.57-.17.85-.25,4.74-1.38,9.82-1.64,14.66-.62,5.71,1.2,11,4.14,15.16,8.22,2.34,2.37,4.27,5.13,5.79,8.08.22.48.44.95.66,1.42.23.53.45,1.05.68,1.58.21.66.44,1.32.65,1.98.14.43.26.87.4,1.3.18.73.35,1.46.53,2.18.08.53.17,1.06.3,1.58.06.72.12,1.45.29,2.16.1,2.19.11,4.39,0,6.58-.19.72-.22,1.46-.28,2.19-.22.87-.38,1.75-.55,2.63-.11.37-.21.75-.31,1.13-.08.27-.16.54-.24.82-.09.28-.18.56-.27.84-.26.73-.54,1.45-.81,2.17-.56,1.3-1.21,2.56-1.9,3.8-2.1,3.64-5.02,6.77-8.4,9.26-1.01.64-2,1.31-3.05,1.88-.12.08-.37.23-.5.31-.29.13-.58.27-.87.41-.26.13-.52.27-.77.4-.31.12-.63.24-.94.35-.23.35-.38.75-.33,1.18.01,6.42.01,12.84.02,19.25-.04.57.12,1.12.33,1.64.2.13.39.26.59.39.22-.11.45-.22.68-.32,1.91-1.18,3.96-2.28,5.42-4.04.44-.88.89-1.81.86-2.82.04-1.99,0-3.99.02-5.98.06-2.01-.13-4.08.54-6.01.73-1.17,1.85-2,2.91-2.86,4.01-3.41,7.27-7.72,9.33-12.57.22-.52.44-1.05.67-1.57.13-.38.27-.76.41-1.14.34-.97.63-1.97.93-2.95.17-.84.36-1.67.57-2.5.07-.52.13-1.05.26-1.56.07-.72.13-1.44.29-2.15.15-2.73.14-5.47,0-8.2-.19-.79-.23-1.6-.29-2.41-.29-1.34-.53-2.7-.83-4.04-.4-1.48-.83-2.95-1.33-4.4-.22-.53-.44-1.05-.68-1.58-.31-.74-.64-1.47-.97-2.2-.92-1.77-1.94-3.49-3.11-5.11-4.71-6.56-11.63-11.56-19.4-13.8l.17-.06c-1.54-.25-3.02-.78-4.58-.93-5.1-.83-10.4-.31-15.27,1.4ZM65.04,44.23c-.49.21-.98.43-1.46.67-3.86,2.04-6.96,5.38-8.81,9.33-.2.44-.39.88-.58,1.32-.13.35-.26.7-.39,1.04-.07.26-.14.53-.21.79-.11.39-.2.78-.32,1.16-.05.5-.09,1-.13,1.51l-.16-.03c-.02.92-.07,1.83-.08,2.75h-.16c-.04,5.37.02,10.73,0,16.1,0,.62.1,1.24.15,1.86.02,10.29,0,20.58.01,30.87l-.17-.04c.06,1.66-.08,3.32.09,4.98.11.46.24.96.65,1.25.98.73,2.07,1.31,3.08,2,1,.6,1.93,1.39,3.09,1.64.2-.51.35-1.05.31-1.6-.02-18.53.02-37.07-.02-55.6,0-.95.05-1.9.07-2.86h.17c.04-.5.08-1,.13-1.49.1-.28.18-.56.27-.83.18-.55.35-1.09.52-1.64.2-.45.4-.91.55-1.37.37-.72.81-1.4,1.22-2.09,1.19-1.74,2.77-3.26,4.69-4.18,1.3-.69,2.76-1.01,4.19-1.33,3.38-.39,6.87.57,9.59,2.61,1.38,1.1,2.54,2.45,3.52,3.91.24.46.48.93.72,1.4.17.36.34.72.51,1.08.17.46.35.92.53,1.37.11.36.2.71.3,1.07.11.37.18.74.27,1.11.1.44.18.89.27,1.34.24,1.02.21,2.08.23,3.12l.17-.03c-.01.64-.01,1.28,0,1.92l-.16-.03c0,.95-.05,1.91-.12,2.86-.23.9-.39,1.82-.58,2.73-.09.28-.18.56-.25.85-.09.28-.18.56-.26.84-.38.8-.78,1.59-1.1,2.41-1.04,1.72-2.19,3.43-3.81,4.66-.49.34-.96.71-1.43,1.07-.45.23-.89.46-1.34.68-.13.08-.4.23-.53.3-.8.31-1.62.57-2.44.84-.44.12-.88.23-1.32.35-.37.05-.74.11-1.11.17-.98.26-2,.19-3.01.23-.47.1-.95.19-1.43.28-.05,3.06.04,6.12-.01,9.18l.18-.03c0,6.87,0,13.75.09,20.63.19.81.25,1.64.27,2.47h.13c.07.86.29,1.71.55,2.55.28.65.62,1.26,1,1.85.3-.03.6-.05.89-.11.08-.23.23-.68.3-.9.06-.49.15-.97.27-1.44.05-.7.13-1.4.3-2.08.08-1.64.12-3.28.11-4.93-.02-6.83-.01-13.67-.08-20.5.29-.25.6-.49.93-.7.38-.05.76-.09,1.14-.14.44-.14.9-.27,1.35-.41.14-.03.41-.09.55-.13.27-.1.54-.2.82-.29.35-.13.71-.26,1.06-.39.55-.22,1.1-.44,1.66-.67.63-.3,1.26-.6,1.88-.94.85-.47,1.68-.98,2.49-1.52.34-.27.69-.55,1.05-.81,3.09-2.42,5.49-5.67,7.08-9.24.62-1.52,1.17-3.08,1.6-4.66.08-.37.17-.73.27-1.09.09-.53.19-1.05.32-1.57.15-1.65.41-3.29.28-4.95-.18-.8-.23-1.61-.28-2.43-.25-.88-.43-1.78-.66-2.67-.09-.27-.19-.54-.28-.81-.09-.28-.18-.56-.27-.83-.24-.56-.49-1.1-.72-1.66-.25-.47-.51-.93-.75-1.41-.7-1.34-1.63-2.54-2.54-3.73-2.53-2.9-5.63-5.35-9.21-6.82-.44-.17-.88-.35-1.32-.54-4.63-1.61-9.85-1.59-14.38.38ZM73.1,55.78c-1.77.44-3.25,1.67-4.12,3.26-.12.3-.26.59-.39.89-.15.34-.28.68-.43,1.03-.07.28-.14.56-.22.83-.1.46-.19.93-.32,1.39-.23,2.93,0,5.87-.01,8.81l.17-.03c0,1.85.08,3.7.11,5.55.11.23.21.47.31.7,1.31-.01,2.59-.34,3.86-.6.53-.19,1.07-.37,1.62-.54.44-.18.88-.35,1.32-.53,2.08-1.03,3.83-2.65,4.98-4.67.23-.55.46-1.09.67-1.65.12-.38.24-.76.37-1.13.52-2.22.43-4.52.32-6.79-.21-.71-.42-1.43-.63-2.14-.71-1.48-1.82-2.73-3.21-3.6-.71-.31-1.43-.57-2.15-.83-.75-.01-1.51-.06-2.26.04Z"/>
    <path class="cls-1" d="M71.15,62.56c.66-.59,1.42-1.05,2.22-1.41.85-.06,1.72-.07,2.53.25.5.33.98.68,1.42,1.08.42.72.76,1.48,1.05,2.26.02.74.02,1.48-.02,2.22-.16.45-.3.9-.44,1.35-.63,1.39-1.75,2.51-3.2,3.01-.62.09-1.24.09-1.86.08-1.37-.44-2.42-1.5-2.97-2.81-.31-1.15-.24-2.36-.13-3.54.16-.36.3-.72.44-1.08.28-.49.6-.96.94-1.41Z"/>
    <path class="cls-1" d="M337.51,14.86c6.95-2.02,14.95-2.4,21.35,1.48,3.63,2.12,6.07,5.7,7.68,9.5.39,1.06.76,2.13,1.17,3.2.11.9.24,1.81.38,2.72.89,3.43.69,7.03.59,10.55.15,1.3-.86,2.52-2.13,2.76-3.81.82-7.72.98-11.55,1.67-.48-.3-1.42-.9-1.9-1.21.18-1.1.38-2.19.59-3.27-.53-2.69-.45-5.46-.95-8.14-.53-.88-1.03-1.76-1.54-2.63-.61-.62-1.21-1.25-1.8-1.87-2.95-1.59-6.43-.89-8.45,1.81-.48,1.4-.98,2.81-1.49,4.2-.11,1.35-.18,2.68-.21,4.05.46,1.39.84,2.81,1.28,4.21.39.88.79,1.75,1.17,2.64.94,1.58,1.94,3.12,2.99,4.63,4.66,5.17,9.43,10.26,13.85,15.66,2.12,2.59,3.98,5.39,5.84,8.19.56,1.06,1.12,2.13,1.69,3.19.42.89.85,1.78,1.27,2.68,1.45,3.14,2.12,6.53,2.8,9.91.32,3.83.02,7.67-.8,11.43-.43,1.32-.76,2.68-1.18,4.01-.43.88-.86,1.76-1.26,2.67-3.93,7.39-12.68,10.87-20.76,10.18-7.68.05-15.79-3.32-19.59-10.31-.2-.43-.59-1.27-.79-1.69-1.17-2.8-2.27-5.67-2.39-8.73l-.45.03c-.21-5.38-.3-10.78-.02-16.16,5.2-.24,10.39-.25,15.59-.28-.02.47-.09,1.4-.12,1.85l.54-.09c-.93,4.19-.53,8.54-.34,12.8.5,1.67,1,3.37,1.47,5.06,2.52,4.08,9.04,4.63,12.11.95.11-1.52.25-3.04.76-4.48.61-4.16-.08-8.32-1.6-12.2-.58-.89-1.15-1.78-1.7-2.68-1.26-1.8-2.71-3.46-4.05-5.2-6.17-6.91-12.45-13.84-17.35-21.74-1.17-2.13-2.22-4.31-3.2-6.52-.29-.85-.57-1.68-.83-2.53-1.6-4.33-1.49-8.96-1.26-13.5l.45.03c.16-1.24.32-2.48.51-3.7.38-.83.74-1.67,1.12-2.49.38-1.08.79-2.15,1.2-3.21,2.43-4.42,6.37-8.13,11.33-9.44Z"/>
    <path class="cls-1" d="M491.11,22.47c4.6-7.11,13.62-9.39,21.62-8.73,6.81-.19,13.99,2.54,17.41,8.77.53,1.37,1.1,2.75,1.64,4.14.24,1.17.51,2.36.85,3.53.59,6.35.24,12.73.05,19.1-4.5.29-9.01.17-13.5.59-.48-.2-1.46-.59-1.95-.79-.03-4.78.09-9.58,0-14.36.09-1.86-1.52-3.09-2.59-4.38-3.46-1.44-7.66-.75-9.72,2.61-.41,10.5-.06,21.02-.21,31.52.13,11.25-.18,22.51.22,33.76.59.88,1.18,1.77,1.75,2.68,1.93,1.92,4.63,2.12,7.17,1.53.83-.84,1.66-1.68,2.47-2.53.15-2.27.16-4.56.7-6.76.25-4.42-.03-8.84.15-13.25.5-.25,1.49-.73,1.99-.98,4.21.66,8.56.28,12.69,1.46.26.94.53,1.87.8,2.82-.47,1.62-.5,3.3-.49,4.98.05.62.16,1.89.21,2.52.41,2.57.3,5.18.31,7.77l-.43.05c0,2.92-.37,5.85-1.53,8.56-2.27,5.2-6.71,9.39-12.24,10.88-6.93,1.33-14.45.67-20.69-2.77-3.5-1.92-5.79-5.33-7.53-8.81-.43-1.67-.85-3.36-1.23-5.03-.51-2.43-.45-4.92-.49-7.39,0-21.47.04-42.95.11-64.42l.44-.05c.16-1.21.35-2.4.6-3.59.48-1.14.97-2.28,1.44-3.42Z"/>
    <path class="cls-1" d="M191.8,14.63c5.28-.06,10.32,2.72,13.4,6.95.42.89.85,1.77,1.27,2.68.3.8.61,1.63.91,2.45.66,2.95.54,6,.66,9,.73,5.37.7,10.9-.02,16.27-.1,2.54-.2,5.07-.37,7.61-.54,1.85-.98,3.73-1.53,5.6-.3.6-.59,1.21-.88,1.84-3.73,5.9-10.93,8-17.54,8.34-2.03.06-4.07.11-6.03.64-.21,1.05-.43,2.1-.67,3.15-.02.72-.08,2.17-.11,2.89l.49.05c-.04,2.86.11,5.75-.33,8.6.26,1.35.27,2.72,0,4.08.3,1.35.32,2.74.16,4.12-.74,6.05.17,12.19-.52,18.24-5.13.39-10.31.25-15.45,0-.3-32.6.09-65.21,0-97.81-.06-1.57.13-3.12.68-4.58,8.63.03,17.25-.13,25.88-.11ZM181.49,30.15c-.05,4.44-.57,8.86-.6,13.3l.49.03c0,.84,0,2.5,0,3.34l-.76.07c.27.53.8,1.61,1.07,2.14l-.76.18c0,.82,0,2.47,0,3.29h.45c0,3-.03,6,.24,8.99,3.3.42,6.59-.21,9.77-1.06.36-7.96.05-15.94.17-23.9-.06-1.93.21-3.93-.48-5.77-3.1-.62-6.49-1.86-9.59-.62Z"/>
    <path class="cls-1" d="M218.43,14.74c7.55.05,15.1.12,22.66-.08,4.51-.21,8.99.96,12.98,3.04,3.47,2.06,6.03,5.24,7.55,8.96,1.71,9.59,1.28,19.39,1.01,29.08l-.37.06c-.21,2.14-.76,4.23-1.21,6.33-1.15,2.54-2.6,4.92-4.3,7.13-1.25,1.37-.47,3.32-.42,4.97.39,1.08.73,2.17,1.07,3.29.39,1.33.75,2.68,1.17,4.01.13.85.25,1.7.39,2.57.44,1.63.65,3.32.89,5,.31,1.35.56,2.74.8,4.13.52,2.68.57,5.43.76,8.16,1,5.15.56,10.46.63,15.69-5.15-.23-10.35.35-15.46-.41-.18-.66-.33-1.32-.45-1.98l-.33.15c-.07-2.08-.18-4.14-.34-6.19-.53-2.19-.69-4.43-.82-6.66-.5-2.21-.69-4.46-.81-6.71-.6-2.72-.75-5.5-.85-8.26l-.44.82c-.06-2.07-.17-4.14-.31-6.19-.57-2.63-.53-5.38-1.62-7.88-2.11-.38-4.91-1.3-6.22,1.12-.49,13.86.04,27.77-.4,41.64-5.04.59-10.14.22-15.2.07-.24-.46-.71-1.36-.95-1.81.05-32.13-.07-64.26-.02-96.38-.04-1.27.33-2.48.63-3.69ZM234.46,30.03c-.67,5.39-.11,10.88-.3,16.32.16,4.42-.34,8.86.22,13.26,2.99,1.08,6.18.11,9.24,0,.47-.25,1.4-.74,1.86-.98.37-8.81.24-17.65.16-26.46-3.46-1.36-7.49-3.8-11.19-2.14Z"/>
    <path class="cls-1" d="M273.73,14.81c13.85-.37,27.74,0,41.6.17.16,5.14.19,10.28.11,15.43.23.14.7.41.93.55-2.36.48-4.77.49-7.15.71-6.07-.43-12.18-.22-18.26-.32-.22.44-.66,1.32-.88,1.76-.02,7.85-.07,15.69,0,23.54,3.35.39,6.73.02,10.07.48,3.06.09,6.14-.07,9.19.29.09,4.62.17,9.24.09,13.87-6.28.34-12.56-.26-18.84-.15-.89,4.25-.43,8.63-.54,12.94.09,6.07-.21,12.15.15,18.2,8.37.51,16.78-.1,25.17.32.19,4.87.16,9.74.02,14.62-11.64.25-23.28-.05-34.92.2-2.3-.09-4.77.4-6.86-.79.21-33.94-.04-67.88.12-101.82Z"/>
    <path class="cls-1" d="M379.46,15.64c.89-.3,1.74-.82,2.71-.8,11.82.03,23.64.06,35.46.1.47.23,1.41.67,1.88.9.09,5.07.2,10.16,0,15.24-7.9.75-15.94-.55-23.78.71-.06,8.31-.06,16.61.11,24.92,6.53.48,13.09-.17,19.63.21.34,4.76.25,9.55.09,14.31-6.59.25-13.19-.26-19.77.05-.25,10.2-.11,20.42,0,30.63,7.91.94,15.92.02,23.87.53.15,4.89.22,9.81-.04,14.71-13.03.21-26.08.11-39.12-.03-.23-.45-.69-1.35-.93-1.79-.02-33.22-.12-66.45-.11-99.67Z"/>
    <path class="cls-1" d="M429.53,15.61c2.34-1.32,5.09-.71,7.64-.82,3.14.13,6.39-.32,9.43.68.47,1.77.93,3.55,1.4,5.33.25,1.1.51,2.22.8,3.34.26,1.09.52,2.2.82,3.3.54,2.48,1.08,4.97,1.7,7.44.23,1.07.48,2.13.75,3.21.3,1.08.59,2.17.94,3.27.13.98.27,1.99.41,2.99l.37-.05c.48,2.98,1.46,5.84,2.22,8.77.89,2.39,1.7,4.81,2.44,7.26.51,1.38.98,2.77,1.45,4.18.49.96.98,1.94,1.52,2.89.24-17.57-.25-35.14-.07-52.72,4.93-.07,9.86-.06,14.79,0,.11,33.95.16,67.9,0,101.85-5.11.34-10.26.45-15.35-.07-.47-1.49-.93-2.98-1.31-4.48-.38-1.36-.72-2.72-1.11-4.07-.62-2.74-1.42-5.43-2.09-8.16-.62-2.22-1.17-4.44-1.71-6.66-.3-1.11-.55-2.22-.8-3.32-.57-1.88-1.12-3.76-1.6-5.65-.34-1.11-.62-2.22-.89-3.33-.56-1.9-1.12-3.81-1.59-5.73-.97-3.25-1.79-6.53-2.71-9.79-.42-1.53-.89-3.04-1.32-4.56-.31,0-.94.02-1.26.02.21,7.47-.29,14.96.46,22.41.07,11.13.1,22.27.07,33.4-5.07.05-10.26,1.08-15.26-.1.02-33.61-.06-67.21-.14-100.82Z"/>
    <path class="cls-1" d="M543.58,14.79c10.23-.35,20.47.03,30.7-.04,2.86.17,5.85-.39,8.59.7-.04,5.23.26,10.46-.02,15.68-7.67.58-15.44-.53-23.04.7-.14,8.6-.07,17.19-.05,25.8,4.32.69,8.71.24,13.06.39l.52-.49c1.52.23,3.04.48,4.56.76.04,4.35.07,8.7-.02,13.06-6.1,1.7-12.52-.59-18.55.98-.02,9.49.02,18.98-.09,28.47.25.39.75,1.18.99,1.58,7.3.06,14.59-.28,21.88.07.15,4.91.26,9.83-.07,14.73-12.81.26-25.65.25-38.46.02-.38-18.96-.06-37.93-.16-56.9.1-15.16-.2-30.33.16-45.49Z"/>
  </g>
</svg>